<?xml version="1.0" encoding="utf-8"?>
<!-- Generator: Adobe Illustrator 24.0.1, SVG Export Plug-In . SVG Version: 6.00 Build 0)  -->
<svg version="1.1" id="Calque_1" xmlns="http://www.w3.org/2000/svg" xmlns:xlink="http://www.w3.org/1999/xlink" x="0px" y="0px"
	 viewBox="0 0 1920 1200" style="enable-background:new 0 0 1920 1200;" xml:space="preserve">
<style type="text/css">
	.st0{fill:#5F6FE0;}
	.st1{fill:#707070;}
	.st2{opacity:0.216;fill:#FFFFFF;enable-background:new    ;}
</style>
<g id="Tracé_3" transform="translate(145.833 96.712)">
	<path class="st0" d="M812,1075.1c-50,0-97.7-1.1-141.9-3.4c-23.2-1.1-45.8-2.6-67.3-4.5c-22.2-1.8-43.9-4-64.2-6.5
		c-21.1-2.5-41.5-5.5-60.6-8.7c-19.7-3.4-38.7-7-56.3-11.1c-18.2-4.2-35.5-8.7-51.5-13.6c-16.4-5.1-32-10.6-46.1-16.4
		c-35.5-14.6-70.5-27.3-103.7-38c-31-9.9-61.3-18.1-90.2-24.5c-26.7-5.9-52.7-10.3-77.3-13.1c-22.6-2.5-44.5-3.9-65.3-3.9
		c-29.4,0-57,2.6-82,7.7c-20.1,4.2-38.6,9.9-54.9,17.1c-6.4,2.8-12.6,5.9-18.2,9.1c-4.5,2.5-8.7,5.3-12.6,7.9
		c-4.6,3.3-7.4,5.7-8.7,6.9v-1094H1808v1097c-4.2,0.7-37.4,6.3-91,14.3c-33.6,5-68.4,10-103.4,14.7c-43.9,6-88.3,11.7-132.1,16.9
		c-111.5,13.3-219.5,24-321,31.6c-60.3,4.6-118.9,8-174.3,10.5C924.9,1073.8,866.4,1075.1,812,1075.1z"/>
	<path class="st1" d="M-188.5-113.2V979.3c1.6-1.4,4.2-3.6,7.9-6.2c3.8-2.7,8-5.4,12.6-8c5.6-3.3,11.8-6.3,18.3-9.1
		c16.4-7.2,34.9-13,55-17.1c25-5.2,52.7-7.7,82.1-7.7c20.8,0,42.7,1.3,65.3,3.9c24.7,2.8,50.7,7.2,77.4,13.1
		c28.9,6.3,59.2,14.5,90.2,24.5c33.3,10.6,68.2,23.4,103.7,38c14.1,5.8,29.7,11.3,46.1,16.4c16,4.9,33.4,9.5,51.5,13.6
		c17.7,4.1,36.6,7.7,56.3,11.1c19.1,3.3,39.5,6.2,60.6,8.7c20.5,2.4,42.1,4.7,64.2,6.5c21.5,1.7,44.2,3.3,67.3,4.5
		c44.2,2.2,91.9,3.4,141.9,3.4c54.4,0,112.9-1.3,173.8-4c55.4-2.3,114-5.9,174.3-10.5c101.5-7.6,209.5-18.3,321-31.6
		c43.8-5.3,88.2-11,132.1-16.9c35.1-4.8,69.8-9.8,103.4-14.7c52.1-7.8,85-13.3,90.6-14.2V-113.2H-188.5 M-189.6-114.2h1997.9V983.5
		c0,0-540.1,92.1-996.4,92.1c-194,0-372.8-16.7-488.5-64.1c-147.4-60.6-257-79.4-336.2-79.4c-128.7,0-176.9,49.6-176.9,49.6
		L-189.6-114.2L-189.6-114.2z"/>
</g>
<ellipse id="Ellipse_9" class="st2" cx="1842.6" cy="115.2" rx="152" ry="157.5"/>
<ellipse id="Ellipse_10" class="st2" cx="1698.1" cy="266.7" rx="117.5" ry="122"/>
<ellipse id="Ellipse_11" transform="matrix(0.9903 -0.1392 0.1392 0.9903 -96.6896 10.1475)" class="st2" cx="24.2" cy="696.3" rx="152" ry="157.5"/>
<ellipse id="Ellipse_14" transform="matrix(0.9903 -0.1392 0.1392 0.9903 -35.041 76.1969)" class="st2" cx="527.2" cy="288.6" rx="85.9" ry="89"/>
<ellipse id="Ellipse_12" transform="matrix(0.9903 -0.1392 0.1392 0.9903 -71.8243 25.474)" class="st2" cx="146.2" cy="526.2" rx="117.5" ry="122"/>
<ellipse id="Ellipse_13" transform="matrix(0.9903 -0.1392 0.1392 0.9903 5.085 37.706)" class="st2" cx="272.1" cy="-17.5" rx="66.4" ry="68.9"/>
<ellipse id="Ellipse_15" transform="matrix(0.9903 -0.1392 0.1392 0.9903 -61.4512 206.1606)" class="st2" cx="1443.2" cy="542.4" rx="96.3" ry="100"/>
<ellipse id="Ellipse_15-2" transform="matrix(0.9903 -0.1392 0.1392 0.9903 -118.9089 230.6426)" class="st2" cx="1589.5" cy="965.4" rx="96.3" ry="100"/>
<ellipse id="Ellipse_17" transform="matrix(0.9903 -0.1392 0.1392 0.9903 -122.0884 253.191)" class="st2" cx="1749.1" cy="999.4" rx="96.3" ry="100"/>
<ellipse id="Ellipse_15-3" transform="matrix(0.9903 -0.1392 0.1392 0.9903 -150.0164 163.3606)" class="st2" cx="1092.9" cy="1154.2" rx="181.9" ry="188.8"/>
</svg>
