<?xml version="1.0" encoding="utf-8"?>
<!-- Generator: Adobe Illustrator 24.0.1, SVG Export Plug-In . SVG Version: 6.00 Build 0)  -->
<svg version="1.1" id="Calque_1" xmlns="http://www.w3.org/2000/svg" xmlns:xlink="http://www.w3.org/1999/xlink" x="0px" y="0px"
	 viewBox="0 0 1920 1200" style="enable-background:new 0 0 1920 1200;" xml:space="preserve">
<style type="text/css">
	.st0{fill:url(#SVGID_1_);}
	.st1{fill:#707070;}
</style>
<g id="Tracé_5" transform="translate(260.193 27.951)">
	
		<linearGradient id="SVGID_1_" gradientUnits="userSpaceOnUse" x1="-259.0606" y1="1172.2393" x2="-259.0596" y2="1173.2399" gradientTransform="matrix(2179.1924 0 0 -1106.9515 565111.6875 1298784.5)">
		<stop  offset="0" style="stop-color:#5F6FE0"/>
		<stop  offset="1" style="stop-color:#6299EA"/>
	</linearGradient>
	<path class="st0" d="M1659.1,1171.9H-260.2c-1-1.3-7-9.1-16.5-22.1c-9.5-13.1-24.6-34.4-42.3-61.1c-19.8-30-38.8-60.7-56.5-91.1
		c-22-38.1-42-75.9-59.3-112.5c-44-93.1-71.3-178.6-81.2-254.1c-2.9-21.8-4.3-43.1-4.2-63.2c0-10.5,0.5-20.8,1.3-30.8
		c0.8-10.2,2.1-20.4,3.8-30.1c1.7-10,3.9-19.8,6.4-29.3c2.6-9.7,5.8-19.2,9.3-28.3c3.6-9.3,7.8-18.5,12.3-27.2
		c4.7-8.9,9.9-17.6,15.5-25.9c7.5-11,15.4-21.6,23.4-31.4c7.9-9.7,16.3-19,24.8-27.6c8.4-8.4,17.1-16.5,26.1-24
		c8.8-7.3,18-14.2,27.4-20.6c9.2-6.2,18.8-12.1,28.6-17.5c9.6-5.3,19.6-10.2,29.8-14.7c9.9-4.4,20.4-8.5,31-12.2
		c10.3-3.6,21.1-6.9,32.2-9.8c10.7-2.9,21.9-5.5,33.4-7.8c11-2.2,22.6-4.2,34.5-6c22.1-3.3,45.7-5.8,72.2-7.7
		c49.6-3.5,101.6-4.3,156.7-5.1c56.5-0.9,114.8-1.7,175.8-5.6c33-2.1,63.5-4.9,93.2-8.5c16.2-2,32.3-4.2,47.8-6.6
		c16.4-2.6,32.7-5.4,48.6-8.6c104.9-20.7,186.6-43.6,258.6-63.8C779.5,88.7,863.9,65,968,65c42.9,0,87.3,4,135.8,12.2
		c25.2,4.3,52.1,9.8,79.9,16.5c28.4,6.8,58.8,15,90.5,24.5c28.4,8.5,55.7,15.9,81.2,22.1c24.2,5.9,47.4,10.8,69,14.6
		c20.4,3.6,39.8,6.3,57.7,8c16.8,1.6,32.8,2.5,47.4,2.5c103.2,0,125.1-40.7,129.5-61.3V1171.9z"/>
	<path class="st1" d="M968,65.5c-104.1,0-188.4,23.7-295.2,53.7c-72,20.2-153.6,43.2-258.6,63.8c-15.9,3.1-32.2,6-48.6,8.6
		c-15.6,2.4-31.7,4.7-47.8,6.6c-29.7,3.6-60.2,6.4-93.2,8.5c-61,3.9-119.4,4.8-175.9,5.6c-55.1,0.8-107.1,1.6-156.7,5.1
		c-26.5,1.9-50.1,4.4-72.2,7.6c-11.9,1.8-23.5,3.8-34.5,6c-11.5,2.3-22.7,4.9-33.3,7.8c-11.1,3-21.9,6.3-32.2,9.8
		c-10.6,3.7-21.1,7.8-31,12.1c-10.2,4.5-20.2,9.4-29.8,14.7c-9.8,5.4-19.4,11.3-28.6,17.5c-9.4,6.4-18.6,13.3-27.3,20.6
		c-8.9,7.4-17.7,15.5-26,23.9c-8.5,8.6-16.8,17.9-24.7,27.5c-8.1,9.8-15.9,20.4-23.4,31.4c-5.6,8.3-10.9,17-15.5,25.9
		c-4.6,8.7-8.7,17.8-12.3,27.1c-3.5,9.1-6.7,18.6-9.3,28.2c-2.6,9.4-4.7,19.3-6.4,29.2c-1.7,9.7-2.9,19.8-3.8,30.1
		c-0.8,10-1.2,20.3-1.3,30.8c-0.1,20.1,1.4,41.4,4.2,63.2c9.9,75.5,37.2,160.9,81.2,253.9c17.3,36.6,37.2,74.4,59.2,112.4
		c17.6,30.4,36.6,61.1,56.5,91.1c17.7,26.7,32.7,47.9,42.2,61c9.1,12.5,15,20.1,16.3,21.9h1918.5V107.9
		c-6.4,21.6-31.6,57.8-129,57.8c-14.6,0-30.6-0.8-47.5-2.5c-17.9-1.7-37.4-4.5-57.7-8.1c-21.6-3.8-44.8-8.7-69-14.6
		c-25.5-6.2-52.9-13.6-81.3-22.1c-31.7-9.4-62.2-17.7-90.5-24.5c-27.8-6.7-54.7-12.2-79.9-16.5C1055.3,69.5,1010.9,65.5,968,65.5
		 M968,64.5c82.6,0,177.6,14.9,306.4,53.2c116.9,34.8,198.4,47.1,255.2,47.1c117.1,0,129.1-52.4,130-68v1075.7h-1920
		c0,0-395.3-506.5-211.4-776.5S28.6,257.9,414,182C675.4,130.6,793.9,64.5,968,64.5z M1659.6,92.4c0,0,0.2,1.6,0,4.3V92.4z"/>
</g>
</svg>
