<?xml version="1.0" encoding="utf-8"?>
<!-- Generator: Adobe Illustrator 24.0.1, SVG Export Plug-In . SVG Version: 6.00 Build 0)  -->
<svg version="1.1" id="Calque_1" xmlns="http://www.w3.org/2000/svg" xmlns:xlink="http://www.w3.org/1999/xlink" x="0px" y="0px"
	 viewBox="0 0 1920 1200" style="enable-background:new 0 0 1920 1200;" xml:space="preserve">
<style type="text/css">
	.st0{fill:url(#SVGID_1_);}
	.st1{fill:#707070;}
</style>
<g id="Tracé_6">
	
		<linearGradient id="SVGID_1_" gradientUnits="userSpaceOnUse" x1="1.2182" y1="1200.2566" x2="1.2192" y2="1201.2567" gradientTransform="matrix(1919 0 0 -1183.1571 -1378.5 1421275.625)">
		<stop  offset="0" style="stop-color:#5F6FE0"/>
		<stop  offset="1" style="stop-color:#6299EA"/>
	</linearGradient>
	<path class="st0" d="M1657,1184c-13.5,0-27.4-0.6-41.4-1.6c-14.6-1.1-29.7-2.9-44.8-5.3c-38.3-5.9-79.9-13.9-123.7-23.6
		c-43.2-9.6-88.8-21.1-135.4-34.1c-46.6-12.9-94.4-27.4-142.1-43.1c-48.2-15.8-96.7-32.9-143.9-50.7l0,0
		c-12.1-4.8-24.4-8.9-36.7-12.3c-11.7-3.3-23.8-6-35.8-8c-22.2-3.8-45-5.7-69.7-5.7c-10.7,0-21.6,0.3-33.3,1.1
		c-10.4,0.6-21.3,1.6-33.2,2.8c-22.1,2.3-44.7,5.5-66.6,8.6c-46.7,6.6-94.9,13.4-146.2,13.4c-36.6,0-70.9-3.4-105-10.5
		c-18.9-3.9-38-9-56.8-15.3c-19.9-6.6-40.2-14.6-60.2-23.8c-14.1-6.5-28.2-12.2-42-17c-13.2-4.6-26.4-8.5-39.3-11.5
		c-12.4-2.9-24.7-5.1-36.7-6.5c-11.5-1.4-23-2.1-34.1-2.1c-9.8,0-19.6,0.5-29.1,1.6c-9.1,1-18.2,2.5-27,4.5
		c-8.4,1.9-16.8,4.2-24.9,7c-7.7,2.6-15.4,5.7-22.9,9c-25.8,11.7-49.9,28.1-71.7,48.6c-8.5,8.1-16.7,16.8-24.4,26
		c-6.1,7.3-11.9,14.9-17.1,22.6c-6.6,9.6-10.7,17-12.4,20.3V0.8h1919v1079.3c-0.7,1-5.6,7.2-14.8,16.1c-5.8,5.7-12.3,11.3-19.2,16.6
		c-8.6,6.7-17.8,13.2-27.5,19.1c-24.6,15.1-52.1,27.1-81.6,35.7c-17.5,5.1-36,9.1-54.9,11.8C1701.1,1182.5,1679.2,1184,1657,1184z"
		/>
	<path class="st1" d="M1.2,1.3v1075c2.1-3.8,5.9-10.4,11.5-18.6c5.2-7.7,11-15.3,17.1-22.7c7.6-9.2,15.9-17.9,24.4-26
		c21.8-20.6,46-36.9,71.8-48.7c7.5-3.4,15.2-6.4,22.9-9.1c8.1-2.8,16.6-5.1,25-7c8.8-2,17.9-3.5,27.1-4.5c9.5-1.1,19.4-1.6,29.2-1.6
		c11.2,0,22.7,0.7,34.2,2.1c12,1.4,24.4,3.6,36.7,6.5c12.9,3,26.1,6.9,39.4,11.5c13.7,4.8,27.9,10.5,42,17
		c20,9.2,40.3,17.2,60.2,23.8c18.8,6.2,37.8,11.3,56.7,15.2c34,7.1,68.3,10.5,104.9,10.5c51.3,0,99.5-6.8,146.2-13.4
		c21.9-3.1,44.5-6.3,66.6-8.6c11.9-1.3,22.7-2.2,33.2-2.8c11.7-0.7,22.6-1.1,33.3-1.1c24.7,0,47.5,1.9,69.7,5.7
		c12.1,2.1,24.1,4.8,35.9,8c12.3,3.4,24.7,7.6,36.8,12.3c47.2,17.8,95.7,34.9,143.9,50.7c47.7,15.6,95.5,30.1,142.1,43.1
		c46.6,13,92.1,24.4,135.3,34.1c43.7,9.8,85.3,17.7,123.6,23.6c15.1,2.3,30.2,4.1,44.8,5.2c14,1.1,27.9,1.6,41.4,1.6
		c22.2,0,44-1.5,64.7-4.5c18.9-2.7,37.3-6.6,54.8-11.8c29.5-8.6,56.9-20.6,81.5-35.7c9.7-5.9,18.9-12.3,27.5-19
		c6.8-5.4,13.3-11,19.1-16.6c8.8-8.5,13.6-14.7,14.6-16V1.3H1.2 M0.2,0.3h1920v1080c0,0-76.5,104.2-263.2,104.2
		c-26.5,0-55.3-2.1-86.3-6.9c-154.9-24-354.2-79.4-545.2-151.5c-49.6-19.5-96.3-26-142-26c-91.2,0-178.9,25.8-279.2,25.8
		c-66.9,0-139.3-11.5-222.2-49.6c-57.7-26.6-108.2-37-151.9-37c-160.7,0-230,141.1-230,141.1V0.3z"/>
</g>
</svg>
